<svg width="300" height="177" viewBox="0 0 300 177" fill="none" xmlns="http://www.w3.org/2000/svg">
<path d="M171.04 128.24C169.76 128.24 169.12 127.16 169.12 125C169.04 123 169.08 119.84 169.24 115.52C169.4 111.2 169.48 106.36 169.48 101C169.48 96.68 169.36 92.24 169.12 87.68C168.96 83.04 168.56 78.6 167.92 74.36C167.36 70.04 166.52 66.2 165.4 62.84C164.28 59.48 162.8 56.8 160.96 54.8C159.2 52.8 157.04 51.8 154.48 51.8C151.76 51.8 149.36 52.48 147.28 53.84C145.28 55.12 143.4 56.72 141.64 58.64C139.96 60.56 138.24 62.44 136.48 64.28C136 64.84 135.68 65 135.52 64.76C135.28 64.52 135.2 64.24 135.28 63.92C136 62.32 137.2 60.52 138.88 58.52C140.64 56.52 142.6 54.64 144.76 52.88C147 51.04 149.28 49.56 151.6 48.44C154 47.24 156.16 46.64 158.08 46.64C161.12 46.64 163.72 48.04 165.88 50.84C168.04 53.64 169.76 57.4 171.04 62.12C172.4 66.84 173.36 72.16 173.92 78.08C174.56 83.92 174.88 89.96 174.88 96.2C174.88 105.56 174.32 114.36 173.2 122.6C174.64 117.72 176.36 112.32 178.36 106.4C180.36 100.4 182.68 94.2 185.32 87.8C187.96 81.32 190.88 74.96 194.08 68.72C197.36 62.48 200.92 56.68 204.76 51.32C208.68 45.88 212.92 41.2 217.48 37.28C222.12 33.28 227.04 30.36 232.24 28.52C234.32 27.88 236.2 27.56 237.88 27.56C240.68 27.56 243.12 28.32 245.2 29.84C247.36 31.28 248.68 33.48 249.16 36.44V36.68C249.16 37.4 249 38.12 248.68 38.84C248.44 39.56 248.16 39.92 247.84 39.92C247.36 39.92 247.12 39.08 247.12 37.4C247.12 35.48 246.6 33.84 245.56 32.48C244.52 31.04 242.8 30.32 240.4 30.32C238.96 30.32 237.2 30.68 235.12 31.4C229.04 33.48 223.12 37.36 217.36 43.04C211.68 48.72 206.28 55.72 201.16 64.04C196.04 72.36 191.28 81.64 186.88 91.88C182.48 102.04 178.56 112.76 175.12 124.04C174.8 125.16 174.2 126.12 173.32 126.92C172.52 127.8 171.76 128.24 171.04 128.24Z" fill="#34A5BC"/>
<path d="M204.411 125.795C202.305 125.795 200.381 125.386 198.638 124.568C196.896 123.735 195.51 122.538 194.479 120.977C193.449 119.402 192.934 117.492 192.934 115.25C192.934 113.523 193.26 112.068 193.911 110.886C194.563 109.705 195.487 108.735 196.684 107.977C197.881 107.22 199.298 106.621 200.934 106.182C202.57 105.742 204.373 105.402 206.343 105.159C208.298 104.917 209.949 104.705 211.298 104.523C212.661 104.341 213.699 104.053 214.411 103.659C215.123 103.265 215.479 102.629 215.479 101.75V100.932C215.479 98.553 214.767 96.6818 213.343 95.3182C211.934 93.9394 209.904 93.25 207.252 93.25C204.737 93.25 202.684 93.803 201.093 94.9091C199.517 96.0152 198.411 97.3182 197.775 98.8182L193.934 97.4318C194.722 95.5227 195.813 94 197.207 92.8636C198.601 91.7121 200.161 90.8864 201.888 90.3864C203.616 89.8712 205.366 89.6136 207.138 89.6136C208.472 89.6136 209.858 89.7879 211.298 90.1364C212.752 90.4848 214.101 91.0909 215.343 91.9545C216.585 92.803 217.593 93.9924 218.366 95.5227C219.138 97.0379 219.525 98.9621 219.525 101.295V125H215.479V119.477H215.229C214.745 120.508 214.025 121.508 213.07 122.477C212.116 123.447 210.919 124.242 209.479 124.864C208.04 125.485 206.351 125.795 204.411 125.795ZM204.957 122.091C207.108 122.091 208.972 121.614 210.548 120.659C212.123 119.705 213.335 118.439 214.184 116.864C215.048 115.273 215.479 113.523 215.479 111.614V106.568C215.176 106.856 214.669 107.114 213.957 107.341C213.26 107.568 212.449 107.773 211.525 107.955C210.616 108.121 209.707 108.265 208.798 108.386C207.888 108.508 207.07 108.614 206.343 108.705C204.373 108.947 202.692 109.326 201.298 109.841C199.904 110.356 198.835 111.068 198.093 111.977C197.351 112.871 196.979 114.023 196.979 115.432C196.979 117.553 197.737 119.197 199.252 120.364C200.767 121.515 202.669 122.091 204.957 122.091ZM252.468 111.659V90.0909H256.513V125H252.468V119.205H252.15C251.332 120.992 250.036 122.485 248.263 123.682C246.491 124.864 244.324 125.455 241.763 125.455C239.536 125.455 237.559 124.97 235.832 124C234.104 123.015 232.748 121.576 231.763 119.682C230.779 117.788 230.286 115.462 230.286 112.705V90.0909H234.332V112.455C234.332 115.182 235.135 117.379 236.741 119.045C238.347 120.697 240.407 121.523 242.923 121.523C244.498 121.523 246.013 121.144 247.468 120.386C248.923 119.629 250.12 118.523 251.059 117.068C251.998 115.598 252.468 113.795 252.468 111.659ZM271.269 78.4545V125H267.224V78.4545H271.269ZM295.724 90.0909V93.6136H279.065V90.0909H295.724ZM284.269 81.7273H288.337V115.886C288.337 117.341 288.587 118.485 289.087 119.318C289.587 120.136 290.239 120.72 291.042 121.068C291.845 121.402 292.701 121.568 293.61 121.568C294.14 121.568 294.595 121.538 294.974 121.477C295.353 121.402 295.686 121.326 295.974 121.25L296.837 124.909C296.443 125.061 295.959 125.197 295.383 125.318C294.807 125.455 294.095 125.523 293.246 125.523C291.762 125.523 290.33 125.197 288.951 124.545C287.587 123.894 286.466 122.924 285.587 121.636C284.709 120.348 284.269 118.75 284.269 116.841V81.7273Z" fill="#34A5BC" fill-opacity="0.51"/>
<path d="M40.08 126.2C29.92 126.2 22.16 122.8 16.8 116C11.52 109.2 8.88 100.08 8.88 88.64V79.64C8.88 72.12 10 65.56 12.24 59.96C14.56 54.36 17.96 50 22.44 46.88C26.92 43.76 32.4 42.2 38.88 42.2C44.88 42.2 49.84 43.4 53.76 45.8C57.68 48.12 60.52 51.2 62.28 55.04C64.04 58.8 64.6 62.92 63.96 67.4L53.64 69.92C54.52 62.24 53.64 56.36 51 52.28C48.36 48.12 44.32 46.04 38.88 46.04C32.8 46.04 28.16 48.2 24.96 52.52C21.84 56.84 20.28 63.88 20.28 73.64V94.64C20.28 104.48 21.96 111.56 25.32 115.88C28.68 120.2 33.68 122.36 40.32 122.36C42.96 122.36 45.48 121.92 47.88 121.04C50.28 120.08 52.32 118.48 54 116.24C55.68 114 56.72 110.88 57.12 106.88L64.56 108.8C62.8 115.2 59.68 119.72 55.2 122.36C50.8 124.92 45.76 126.2 40.08 126.2Z" fill="#34A5BC"/>
<path d="M85.4034 125.795C83.2973 125.795 81.3731 125.386 79.6307 124.568C77.8883 123.735 76.5019 122.538 75.4716 120.977C74.4413 119.402 73.9261 117.492 73.9261 115.25C73.9261 113.523 74.2519 112.068 74.9034 110.886C75.5549 109.705 76.4792 108.735 77.6761 107.977C78.8731 107.22 80.2898 106.621 81.9261 106.182C83.5625 105.742 85.3655 105.402 87.3352 105.159C89.2898 104.917 90.9413 104.705 92.2898 104.523C93.6534 104.341 94.6913 104.053 95.4034 103.659C96.1155 103.265 96.4716 102.629 96.4716 101.75V100.932C96.4716 98.553 95.7595 96.6818 94.3352 95.3182C92.9261 93.9394 90.8958 93.25 88.2443 93.25C85.7292 93.25 83.6761 93.803 82.0852 94.9091C80.5095 96.0152 79.4034 97.3182 78.767 98.8182L74.9261 97.4318C75.714 95.5227 76.8049 94 78.1989 92.8636C79.5928 91.7121 81.1534 90.8864 82.8807 90.3864C84.608 89.8712 86.358 89.6136 88.1307 89.6136C89.464 89.6136 90.8504 89.7879 92.2898 90.1364C93.7443 90.4848 95.0928 91.0909 96.3352 91.9545C97.5777 92.803 98.5852 93.9924 99.358 95.5227C100.131 97.0379 100.517 98.9621 100.517 101.295V125H96.4716V119.477H96.2216C95.7367 120.508 95.017 121.508 94.0625 122.477C93.108 123.447 91.911 124.242 90.4716 124.864C89.0322 125.485 87.3428 125.795 85.4034 125.795ZM85.9489 122.091C88.1004 122.091 89.964 121.614 91.5398 120.659C93.1155 119.705 94.3277 118.439 95.1761 116.864C96.0398 115.273 96.4716 113.523 96.4716 111.614V106.568C96.1686 106.856 95.661 107.114 94.9489 107.341C94.2519 107.568 93.4413 107.773 92.517 107.955C91.608 108.121 90.6989 108.265 89.7898 108.386C88.8807 108.508 88.0625 108.614 87.3352 108.705C85.3655 108.947 83.6837 109.326 82.2898 109.841C80.8958 110.356 79.8277 111.068 79.0852 111.977C78.3428 112.871 77.9716 114.023 77.9716 115.432C77.9716 117.553 78.7292 119.197 80.2443 120.364C81.7595 121.515 83.661 122.091 85.9489 122.091ZM111.278 125V90.0909H115.21V95.4545H115.506C116.203 93.697 117.415 92.2803 119.142 91.2045C120.884 90.1136 122.854 89.5682 125.051 89.5682C125.384 89.5682 125.756 89.5758 126.165 89.5909C126.574 89.6061 126.915 89.6212 127.188 89.6364V93.75C127.006 93.7197 126.688 93.6742 126.233 93.6136C125.778 93.553 125.286 93.5227 124.756 93.5227C122.938 93.5227 121.316 93.9091 119.892 94.6818C118.483 95.4394 117.369 96.4924 116.551 97.8409C115.733 99.1894 115.324 100.727 115.324 102.455V125H111.278ZM147.142 125.727C143.884 125.727 141.066 124.97 138.688 123.455C136.309 121.924 134.468 119.811 133.165 117.114C131.877 114.402 131.233 111.28 131.233 107.75C131.233 104.235 131.877 101.114 133.165 98.3864C134.468 95.6439 136.263 93.5 138.551 91.9545C140.854 90.3939 143.513 89.6136 146.528 89.6136C148.422 89.6136 150.248 89.9621 152.006 90.6591C153.763 91.3409 155.339 92.3939 156.733 93.8182C158.142 95.2273 159.256 97.0076 160.074 99.1591C160.892 101.295 161.301 103.826 161.301 106.75V108.75H134.028V105.182H157.165C157.165 102.939 156.71 100.924 155.801 99.1364C154.907 97.3333 153.657 95.9091 152.051 94.8636C150.46 93.8182 148.619 93.2955 146.528 93.2955C144.316 93.2955 142.369 93.8864 140.688 95.0682C139.006 96.25 137.688 97.8106 136.733 99.75C135.794 101.689 135.316 103.811 135.301 106.114V108.25C135.301 111.023 135.778 113.447 136.733 115.523C137.703 117.583 139.074 119.182 140.847 120.318C142.619 121.455 144.718 122.023 147.142 122.023C148.794 122.023 150.241 121.765 151.483 121.25C152.741 120.735 153.794 120.045 154.642 119.182C155.506 118.303 156.157 117.341 156.597 116.295L160.438 117.545C159.907 119.015 159.036 120.371 157.824 121.614C156.627 122.856 155.127 123.856 153.324 124.614C151.536 125.356 149.475 125.727 147.142 125.727Z" fill="#21A8C3" fill-opacity="0.52"/>
</svg>
